# xmcd
#
# Track frame offsets:
#	150
#	17195
#	32540
#	48080
#	63885
#	76472
#	93710
#	110357
#	125760
#	143897
# Disc length: 2163 seconds
# Revision: 18
# Processed by: cddbd v1.5.2PL0 Copyright (c) Steve Scherf et al.
#
# Submitted via: libkcddb 0.21
#
DISCID=8108710a
DTITLE=Billy Ray Cyrus - Some Gave All
DYEAR=1992
DGENRE=Country
TTITLE0=Could've Been Me
TTITLE1=Achy Breaky Heart
TTITLE2=She's Not Cryin' Anymore
TTITLE3=Where'm I Gonna Live
TTITLE4=These Boots Are Made For Walkin'
TTITLE5=Someday, Somewhere, Somehow
TTITLE6=Never Thought I'd Fall In Love With You
TTITLE7=Ain't No Good Goodbye
TTITLE8=I'm So Miserable
TTITLE9=Some Gave All
EXTD=YEAR: 1992 ID3G: 2
EXTT0=
EXTT1=
EXTT2=
EXTT3=
EXTT4=
EXTT5=
EXTT6=
EXTT7=
EXTT8=
EXTT9=
PLAYORDER=
